<?xml version="1.0" encoding="iso-8859-1"?>
<!-- Generator: Adobe Illustrator 19.0.0, SVG Export Plug-In . SVG Version: 6.00 Build 0)  -->
<svg version="1.1" id="jar" xmlns="http://www.w3.org/2000/svg" xmlns:xlink="http://www.w3.org/1999/xlink" x="0px" y="0px"
	 viewBox="0 0 511.999 511.999" style="enable-background:new 0 0 511.999 511.999;" xml:space="preserve">
<g>
	<g>
		<path d="M414.826,183.345l-31.374-29.026v-15.546h1.653c8.688,0,15.731-7.043,15.731-15.731v-22.629
			c0-29.426-23.94-53.367-53.368-53.367H320.19V36.443C320.19,16.349,303.841,0,283.747,0h-55.846
			c-20.095,0-36.443,16.349-36.443,36.443v10.603H164.18c-29.426,0-53.367,23.94-53.367,53.367v22.629
			c0,8.688,7.043,15.731,15.731,15.731h3.061v15.43l-32.137,28.994c-6.677,6.024-10.507,14.637-10.507,23.63v289.44
			c0,8.688,7.043,15.731,15.731,15.731h306.615c8.688,0,15.731-7.043,15.731-15.731V206.709
			C425.04,197.866,421.317,189.351,414.826,183.345z M222.92,36.443c0-2.747,2.235-4.981,4.981-4.981h55.846
			c2.747,0,4.981,2.235,4.981,4.981v10.603H222.92V36.443z M142.276,100.413c0-12.078,9.827-21.905,21.905-21.905h43.01h97.271
			h43.008c12.079,0,21.906,9.827,21.906,21.905v6.898h-1.653H145.337h-3.061V100.413z M118.424,480.538V206.829
			c0-0.104,0.044-0.201,0.12-0.272l37.331-33.68c3.306-2.983,5.193-7.227,5.193-11.68v-22.424H351.99v22.424
			c0,4.385,1.83,8.57,5.048,11.548l36.422,33.696c0.073,0.069,0.116,0.167,0.116,0.268v273.829H118.424z"/>
	</g>
</g>
<g>
	<g>
		<path d="M256,196.816c-62.219,0-112.839,50.62-112.839,112.839c0,62.22,50.62,112.84,112.839,112.84
			c62.22,0,112.84-50.62,112.84-112.84S318.221,196.816,256,196.816z M256,391.034c-44.871-0.001-81.377-36.506-81.377-81.378
			c0-44.871,36.506-81.377,81.377-81.377c44.872,0,81.378,36.506,81.378,81.377C337.379,354.528,300.873,391.034,256,391.034z"/>
	</g>
</g>
<g>
	<g>
		<path d="M300.906,294.379c-13.612,0-24.686,11.075-24.686,24.686c0,13.611,11.075,24.686,24.686,24.686
			s24.686-11.075,24.686-24.686C325.592,305.453,314.518,294.379,300.906,294.379z"/>
	</g>
</g>
<g>
	<g>
		<path d="M243.924,324.643c-13.612,0-24.686,11.075-24.686,24.686c0,13.611,11.075,24.686,24.686,24.686
			c13.611,0,24.686-11.075,24.686-24.686C268.61,335.718,257.537,324.643,243.924,324.643z"/>
	</g>
</g>
<g>
	<g>
		<path d="M236.948,253.444c-12.335,0-22.37,10.036-22.37,22.372c0,12.335,10.035,22.37,22.37,22.37
			c12.336,0,22.372-10.035,22.372-22.37C259.32,263.48,249.283,253.444,236.948,253.444z"/>
	</g>
</g>
<g>
</g>
<g>
</g>
<g>
</g>
<g>
</g>
<g>
</g>
<g>
</g>
<g>
</g>
<g>
</g>
<g>
</g>
<g>
</g>
<g>
</g>
<g>
</g>
<g>
</g>
<g>
</g>
<g>
</g>
</svg>
